<?xml version="1.0" encoding="UTF-8"?>
<svg id="Layer_1" xmlns="http://www.w3.org/2000/svg" version="1.1" viewBox="0 0 24 24">
  <!-- Generator: Adobe Illustrator 29.1.0, SVG Export Plug-In . SVG Version: 2.1.0 Build 142)  -->
  <defs>
    <style>
      .st0 {
        fill: #fff;
      }
    </style>
  </defs>
  <path class="st0" d="M24,7v1c0,.6-.4,1-1,1s-1-.4-1-1v-1c0-1.1-.9-2-2-2h-1l1.2,1.3c.4.4.4,1,0,1.4-.4.4-1,.4-1.4,0l-2.2-2.3c-.8-.8-.8-2,0-2.8l2.2-2.3c.4-.4,1-.4,1.4,0,.4.4.4,1,0,1.4l-1.3,1.3h1c2.2,0,4,1.8,4,4h0ZM5.2,16.3c-.4-.4-1-.4-1.4,0-.4.4-.4,1,0,1.4l1.2,1.3h-1c-1.1,0-2-.9-2-2s-.4-1-1-1S0,16.4,0,17C0,19.2,1.8,21,4,21h1l-1.3,1.3c-.4.4-.4,1,0,1.4.4.4,1,.4,1.4,0l2.2-2.3c.8-.8.8-2,0-2.8l-2.2-2.3h0ZM13.5,8c-3,0-5.5,2.5-5.5,5.5v.5h-2.5c-1.9,0-3.5-1.6-3.5-3.5V3.5C2,1.6,3.6,0,5.5,0h4.1C10.4,0,11.1.3,11.7.8l1.4,1.4c.6.6.9,1.3.9,2.2v3.6h-.5,0ZM10,5h2v-.6c0-.3-.1-.5-.3-.7l-1.4-1.4c-.2-.2-.4-.3-.7-.3h-.6v2c0,.6.4,1,1,1ZM21.1,12.2c.6.6.9,1.3.9,2.2v6.1c0,1.9-1.6,3.5-3.5,3.5h-5c-1.9,0-3.5-1.6-3.5-3.5v-7c0-1.9,1.6-3.5,3.5-3.5h4.1c.8,0,1.5.3,2.1.8l1.4,1.4h0ZM20,14.3c0-.3-.1-.5-.3-.7l-1.4-1.4c-.2-.2-.4-.3-.7-.3h-.6v2c0,.6.4,1,1,1h2v-.6Z"/>
</svg>