<?xml version="1.0" encoding="UTF-8"?>
<svg id="Layer_1" xmlns="http://www.w3.org/2000/svg" version="1.1" viewBox="0 0 512 512">
  <!-- Generator: Adobe Illustrator 29.1.0, SVG Export Plug-In . SVG Version: 2.1.0 Build 142)  -->
  <defs>
    <style>
      .st0 {
        fill: #fff;
      }
    </style>
  </defs>
  <path class="st0" d="M405.3,298.7c-13.9,0-27.6,2.8-40.4,8.1l-67.4-81.4L440.6,52.4c11.4-13.5,9.6-33.7-3.9-45.1-13.5-11.4-33.7-9.6-45.1,3.9-.1.1-.2.2-.3.4l-135.4,163.6L120.7,11.6c-11.3-13.6-31.5-15.5-45.1-4.2-13.6,11.3-15.5,31.5-4.2,45.1l143.1,172.9-67.3,81.4c-54.8-22.8-117.7,3.2-140.5,58-22.8,54.8,3.2,117.7,58,140.5,54.8,22.8,117.7-3.2,140.5-58,13.6-32.6,10.2-69.8-8.9-99.5l59.7-72.2,59.7,72.2c-31.7,49.5-17.3,115.4,32.3,147.1,49.5,31.7,115.4,17.3,147.1-32.3,31.7-49.5,17.3-115.4-32.3-147.1-17.2-11-37.1-16.8-57.5-16.8h0ZM106.7,448c-23.6,0-42.7-19.1-42.7-42.7s19.1-42.7,42.7-42.7,42.7,19.1,42.7,42.7-19.1,42.7-42.7,42.7ZM405.3,448c-23.6,0-42.7-19.1-42.7-42.7s19.1-42.7,42.7-42.7,42.7,19.1,42.7,42.7-19.1,42.7-42.7,42.7Z"/>
</svg>