<?xml version="1.0" encoding="UTF-8"?>
<svg id="Layer_1" xmlns="http://www.w3.org/2000/svg" version="1.1" viewBox="0 0 24 24">
  <!-- Generator: Adobe Illustrator 29.1.0, SVG Export Plug-In . SVG Version: 2.1.0 Build 142)  -->
  <defs>
    <style>
      .st0 {
        fill: #fff;
      }
    </style>
  </defs>
  <path class="st0" d="M23,5.5c0-.2-.3-1.8-1.5-2.9-1.2-1.1-2.8-1.4-2.9-1.4-.2,0-.5,0-.7.1,0,0-1.1.7-3.2,2.4,1.1.4,2.4,1,3.5,2.1,1.1,1.1,1.8,2.4,2.2,3.5,1.7-2,2.4-3,2.4-3.1.1-.2.2-.4.1-.7Z"/>
  <path class="st0" d="M12.9,5.2c-1.1,1-2.3,2.1-3.8,3.6C3.1,14.8,1.5,17.2,1.5,17.3c0,.1-.1.3-.2.5l-.3,4.1c0,.3,0,.6.3.8.2.2.4.3.7.3s0,0,0,0l4.1-.3c.2,0,.3,0,.5-.2,0,0,2.5-1.6,8.6-7.7,1.5-1.5,2.7-2.7,3.7-3.8-.2-.6-.7-2.5-2-3.8-1.3-1.3-3.3-1.8-3.9-2h0Z"/>
</svg>