<?xml version="1.0" encoding="UTF-8"?>
<svg id="Layer_1" xmlns="http://www.w3.org/2000/svg" version="1.1" viewBox="0 0 24 24">
  <!-- Generator: Adobe Illustrator 29.1.0, SVG Export Plug-In . SVG Version: 2.1.0 Build 142)  -->
  <defs>
    <style>
      .st0 {
        fill: #fff;
      }
    </style>
  </defs>
  <path class="st0" d="M22.5,18h-1.5V6h1.5c.8,0,1.5-.7,1.5-1.5s-.7-1.5-1.5-1.5h-1.5v-1.5c0-.8-.7-1.5-1.5-1.5s-1.5.7-1.5,1.5v1.5H6v-1.5c0-.8-.7-1.5-1.5-1.5s-1.5.7-1.5,1.5v1.5h-1.5c-.8,0-1.5.7-1.5,1.5s.7,1.5,1.5,1.5h1.5v12h-1.5c-.8,0-1.5.7-1.5,1.5s.7,1.5,1.5,1.5h1.5v1.5c0,.8.7,1.5,1.5,1.5s1.5-.7,1.5-1.5v-1.5h12v1.5c0,.8.7,1.5,1.5,1.5s1.5-.7,1.5-1.5v-1.5h1.5c.8,0,1.5-.7,1.5-1.5s-.7-1.5-1.5-1.5ZM6,18V6h12v12H6Z"/>
</svg>