<?xml version="1.0" encoding="UTF-8"?>
<svg id="Layer_1" xmlns="http://www.w3.org/2000/svg" version="1.1" viewBox="0 0 24 24">
  <!-- Generator: Adobe Illustrator 29.1.0, SVG Export Plug-In . SVG Version: 2.1.0 Build 142)  -->
  <defs>
    <style>
      .st0 {
        fill: #fff;
      }
    </style>
  </defs>
  <path class="st0" d="M0,7v-2C0,2.2,2.2,0,5,0h2c.6,0,1,.4,1,1s-.4,1-1,1h-2c-1.7,0-3,1.3-3,3v2c0,.6-.4,1-1,1s-1-.4-1-1ZM12,10c-1.1,0-2,.9-2,2s.9,2,2,2,2-.9,2-2-.9-2-2-2ZM7,22h-2c-1.7,0-3-1.3-3-3v-2c0-.6-.4-1-1-1s-1,.4-1,1v2c0,2.8,2.2,5,5,5h2c.6,0,1-.4,1-1s-.4-1-1-1ZM19,0h-2c-.6,0-1,.4-1,1s.4,1,1,1h2c1.7,0,3,1.3,3,3v2c0,.6.4,1,1,1s1-.4,1-1v-2c0-2.8-2.2-5-5-5ZM12,18c-4.6,0-7.5-4-8.1-5.1-.3-.6-.3-1.2,0-1.8.5-1.1,3.5-5.1,8.1-5.1s7.5,4,8.1,5.1q.4.7,0,0c.3.6.3,1.2,0,1.8-.5,1.1-3.5,5.1-8.1,5.1h0ZM18.3,12c-.3-.7-2.7-4-6.3-4s-5.9,3.3-6.3,4c.3.7,2.7,4,6.3,4s5.9-3.4,6.3-4ZM23,16c-.6,0-1,.4-1,1v2c0,1.7-1.3,3-3,3h-2c-.6,0-1,.4-1,1s.4,1,1,1h2c2.8,0,5-2.2,5-5v-2c0-.6-.4-1-1-1Z"/>
</svg>