<?xml version="1.0" encoding="UTF-8"?>
<svg id="Layer_1" xmlns="http://www.w3.org/2000/svg" version="1.1" viewBox="0 0 512 512">
  <!-- Generator: Adobe Illustrator 29.1.0, SVG Export Plug-In . SVG Version: 2.1.0 Build 142)  -->
  <defs>
    <style>
      .st0 {
        fill: #fff;
      }
    </style>
  </defs>
  <path class="st0" d="M512,74.7c0,17.7-14.3,32-32,32H32C14.3,106.7,0,92.4,0,74.7s14.3-32,32-32h448c17.7,0,32,14.3,32,32ZM309.3,426.7h-106.7c-17.7,0-32,14.3-32,32s14.3,32,32,32h106.7c17.7,0,32-14.3,32-32s-14.3-32-32-32ZM394.7,234.7H117.3c-17.7,0-32,14.3-32,32s14.3,32,32,32h277.3c17.7,0,32-14.3,32-32s-14.3-32-32-32Z"/>
</svg>