<?xml version="1.0" encoding="UTF-8"?>
<svg id="Layer_1" xmlns="http://www.w3.org/2000/svg" version="1.1" viewBox="0 0 512 512">
  <!-- Generator: Adobe Illustrator 29.1.0, SVG Export Plug-In . SVG Version: 2.1.0 Build 142)  -->
  <defs>
    <style>
      .st0 {
        fill: #fff;
      }
    </style>
  </defs>
  <path class="st0" d="M509.1,146.8L0,149.1v-21.1C0,69.1,47.8,21.4,106.7,21.3h53.9c9.9,0,19.7,2.3,28.6,6.7l67.3,33.8c3,1.4,6.2,2.2,9.5,2.1h139.3c49.6,0,92.6,34.4,103.7,82.8h0ZM512,189.4v194.6c0,58.9-47.8,106.6-106.7,106.7H106.7c-58.9,0-106.6-47.8-106.7-106.7v-192.2l512-2.4ZM341.3,341.3c0-11.8-9.6-21.3-21.3-21.3h-42.7v-42.7c0-11.8-9.6-21.3-21.3-21.3s-21.3,9.6-21.3,21.3v42.7h-42.7c-11.8,0-21.3,9.6-21.3,21.3s9.6,21.3,21.3,21.3h42.7v42.7c0,11.8,9.6,21.3,21.3,21.3s21.3-9.6,21.3-21.3v-42.7h42.7c11.8,0,21.3-9.6,21.3-21.3Z"/>
</svg>