<?xml version="1.0" encoding="UTF-8"?>
<svg id="Layer_1" xmlns="http://www.w3.org/2000/svg" version="1.1" viewBox="0 0 512 512">
  <!-- Generator: Adobe Illustrator 29.1.0, SVG Export Plug-In . SVG Version: 2.1.0 Build 142)  -->
  <defs>
    <style>
      .st0 {
        fill: #fff;
      }
    </style>
  </defs>
  <path class="st0" d="M506.7,87.6v42.7c0,35.2-28.8,64-64,64h-42.7c-35.2,0-64-28.8-64-64v-42.7c0-35.2,28.8-64,64-64h42.7c35.2,0,64,28.8,64,64ZM442.7,279.6h-85.3c-35.2,0-64,28.8-64,64v85.3c0,35.2,28.8,64,64,64h85.3c35.2,0,64-28.8,64-64v-85.3c0-35.2-28.8-64-64-64ZM186,24.2c-29-29.2-76.6-29-105-.6L15.4,85.6c-12.8,12.2-13.4,32.4-1.3,45.2,12.2,12.8,32.4,13.4,45.2,1.3l42-39.7v389.8c0,17.7,14.3,32,32,32s32-14.3,32-32V92.5l42,39.7c6.2,5.8,14.1,8.7,22,8.7s17.1-3.4,23.3-10c12.2-12.8,11.5-33.1-1.3-45.2l-65.3-61.4h0Z"/>
</svg>