<?xml version="1.0" encoding="UTF-8"?>
<svg id="Layer_1" xmlns="http://www.w3.org/2000/svg" version="1.1" viewBox="0 0 512 512">
  <!-- Generator: Adobe Illustrator 29.1.0, SVG Export Plug-In . SVG Version: 2.1.0 Build 142)  -->
  <defs>
    <style>
      .st0 {
        fill: #fff;
      }
    </style>
  </defs>
  <path class="st0" d="M506.7,85.3v85.3c0,35.2-28.8,64-64,64h-85.3c-35.2,0-64-28.8-64-64v-85.3c0-35.2,28.8-64,64-64h85.3c35.2,0,64,28.8,64,64ZM442.7,320h-42.7c-35.2,0-64,28.8-64,64v42.7c0,35.2,28.8,64,64,64h42.7c35.2,0,64-28.8,64-64v-42.7c0-35.2-28.8-64-64-64ZM207.4,382.1l-42,39.7V32C165.3,14.3,151,0,133.3,0s-32,14.3-32,32v389.8l-42-39.7c-12.8-12.2-33.1-11.5-45.2,1.3-12.2,12.8-11.5,33.1,1.3,45.2l65.1,61.4c14.1,14.1,32.9,22,52.9,22s38.6-7.7,52.1-21.3l65.9-62.1c12.8-12.2,13.4-32.4,1.3-45.2s-32.4-13.4-45.2-1.3h0Z"/>
</svg>