<?xml version="1.0" encoding="UTF-8"?>
<svg id="Filled" xmlns="http://www.w3.org/2000/svg" version="1.1" viewBox="0 0 512 512">
  <!-- Generator: Adobe Illustrator 29.1.0, SVG Export Plug-In . SVG Version: 2.1.0 Build 142)  -->
  <defs>
    <style>
      .st0 {
        fill: #fff;
      }
    </style>
  </defs>
  <path class="st0" d="M367.9,85.3c-16.7-16.7-43.7-16.7-60.3,0-8,8-12.5,18.8-12.5,30.2v33.8h-103C86,149.5.1,235.3,0,341.3v149.3c0,11.8,9.6,21.3,21.3,21.3s21.3-9.6,21.3-21.3c0-70.7,57.3-127.9,128-128h124.4v33.8c0,23.6,19.1,42.7,42.7,42.7,11.3,0,22.2-4.5,30.2-12.5l125.4-125.4c25-25,25-65.5,0-90.5l-125.4-125.4Z"/>
</svg>