<?xml version="1.0" encoding="UTF-8"?>
<svg id="Layer_1" xmlns="http://www.w3.org/2000/svg" version="1.1" viewBox="0 0 24 24">
  <!-- Generator: Adobe Illustrator 29.1.0, SVG Export Plug-In . SVG Version: 2.1.0 Build 142)  -->
  <defs>
    <style>
      .st0 {
        fill: #fff;
      }
    </style>
  </defs>
  <path class="st0" d="M5,3h2v18h-2c-2.8,0-5-2.2-5-5v-8C0,5.2,2.2,3,5,3ZM19,3c2.8,0,5,2.2,5,5v8c0,2.8-2.2,5-5,5h-10V3h10ZM14,9h2v7c0,.6.4,1,1,1s1-.4,1-1v-7h2c.6,0,1-.4,1-1s-.4-1-1-1h-6c-.6,0-1,.4-1,1s.4,1,1,1ZM9,21h-2c0,.6-.4,1-1,1s-1,.4-1,1,.4,1,1,1,1.5-.3,2-.8c.5.5,1.2.8,2,.8s1-.4,1-1-.4-1-1-1-1-.4-1-1ZM7,3h2c0-.6.4-1,1-1s1-.4,1-1-.4-1-1-1-1.5.3-2,.8c-.5-.5-1.2-.8-2-.8s-1,.4-1,1,.4,1,1,1,1,.4,1,1Z"/>
</svg>