<?xml version="1.0" encoding="UTF-8"?>
<svg id="Layer_1" xmlns="http://www.w3.org/2000/svg" version="1.1" viewBox="0 0 512 512">
  <!-- Generator: Adobe Illustrator 29.1.0, SVG Export Plug-In . SVG Version: 2.1.0 Build 142)  -->
  <defs>
    <style>
      .st0 {
        fill: #fff;
      }
    </style>
  </defs>
  <path class="st0" d="M384,256c-70.6,0-128,57.4-128,128s57.4,128,128,128,128-57.4,128-128-57.4-128-128-128ZM435.4,414.1l-36.5,36.5c-4.3,4.3-9.6,6.2-15.1,6.2s-10.9-2.1-15.1-6.2c-8.3-8.3-8.3-21.8,0-30.1l15.1-15.1h-64c-11.7,0-21.3-9.6-21.3-21.3s9.6-21.3,21.3-21.3h64l-15.1-15.1c-8.3-8.3-8.3-21.8,0-30.1s21.8-8.3,30.1,0l36.5,36.5c8.3,8.3,12.4,19.2,12.4,30.1h0c0,10.9-4.3,21.8-12.4,30.1h.2ZM225.7,448h-119c-58.9,0-106.7-47.8-106.7-106.7V106.7C0,47.8,47.8,0,106.7,0v128c0,23.5,19.2,42.7,42.7,42.7h149.3c23.5,0,42.7-19.2,42.7-42.7V6c7,3.2,13.7,7.5,19,13l69.1,69.8c11.9,11.9,18.6,27.9,18.6,45v79.6c0,4.1-1.5,7.9-3.6,11.3-18.8-7.3-39.3-11.3-60.4-11.3-36.9,0-71,11.9-99,32-13.4-19.2-35.8-32-61-32-41.2,0-74.7,33.5-74.7,74.7s28.8,69.1,65.7,73.8c-.9,7.3-1.7,14.7-1.7,22.2,0,22.6,4.5,44.2,12.6,64h-.2ZM298.5,128h-149.1V0h149.3v128h-.2ZM252.8,274.8c-11.3,13.4-20.3,28.6-27.1,45h-1.9c-17.7,0-32-14.3-32-32s14.3-32,32-32,23.9,7.7,29,18.8v.2Z"/>
</svg>