<?xml version="1.0" encoding="UTF-8"?>
<svg id="Capa_1" xmlns="http://www.w3.org/2000/svg" version="1.1" viewBox="0 0 512 512">
  <!-- Generator: Adobe Illustrator 29.1.0, SVG Export Plug-In . SVG Version: 2.1.0 Build 142)  -->
  <defs>
    <style>
      .st0 {
        fill: #fff;
      }
    </style>
  </defs>
  <circle class="st0" cx="256" cy="298.7" r="42.7"/>
  <path class="st0" d="M480.8,87.9l-56.7-56.7c-5.7-5.6-12-10.5-18.7-14.7v47.5c0,58.9-47.8,106.6-106.7,106.7h-85.3c-58.9,0-106.6-47.8-106.7-106.7V0C47.8,0,0,47.8,0,106.7v298.7c0,58.9,47.8,106.6,106.7,106.7h298.7c58.9,0,106.6-47.8,106.7-106.7v-242c0-28.3-11.2-55.5-31.2-75.4h-.1ZM256,384c-47.1,0-85.3-38.2-85.3-85.3s38.2-85.3,85.3-85.3,85.3,38.2,85.3,85.3-38.2,85.3-85.3,85.3h0Z"/>
  <path class="st0" d="M213.3,128h85.3c35.3,0,64-28.7,64-64V1.4c-4.6-.8-9.3-1.2-14-1.4h-199.3v64c0,35.3,28.7,64,64,64Z"/>
</svg>