<?xml version="1.0" encoding="UTF-8"?>
<svg id="Layer_1" xmlns="http://www.w3.org/2000/svg" version="1.1" viewBox="0 0 24 24">
  <!-- Generator: Adobe Illustrator 29.1.0, SVG Export Plug-In . SVG Version: 2.1.0 Build 142)  -->
  <defs>
    <style>
      .st0 {
        fill: #fff;
      }
    </style>
  </defs>
  <path class="st0" d="M13.4,15.6c.4.4.6.9.6,1.4s-.2,1-.6,1.4c-.8.8-2.1.8-2.8,0-.8-.8-.8-2,0-2.8l1.4-1.4,1.4,1.4ZM20,12v7c0,2.8-2.2,5-5,5h-6c-2.8,0-5-2.2-5-5v-7c0-2.2,1.8-4,4-4v-1c0-1,.8-1.9,1.8-2l.7-3.7C10.6.5,11.2,0,12,0s1.4.5,1.5,1.3l.7,3.7c1,.1,1.8,1,1.8,2v1c2.2,0,4,1.8,4,4h0ZM16,17c0-1.1-.4-2.1-1.2-2.8l-1.4-1.4c-.8-.8-2-.8-2.8,0l-1.4,1.4c-1.6,1.6-1.6,4.1,0,5.7.8.8,1.8,1.2,2.8,1.2s2.1-.4,2.8-1.2c.8-.8,1.2-1.8,1.2-2.8Z"/>
</svg>