<?xml version="1.0" encoding="UTF-8"?>
<svg id="Layer_1" xmlns="http://www.w3.org/2000/svg" version="1.1" viewBox="0 0 512 512">
  <!-- Generator: Adobe Illustrator 29.1.0, SVG Export Plug-In . SVG Version: 2.1.0 Build 142)  -->
  <defs>
    <style>
      .st0 {
        fill: #fff;
      }
    </style>
  </defs>
  <path class="st0" d="M256,362.7c-58.9,0-106.7-47.8-106.7-106.7s47.8-106.7,106.7-106.7,106.7,47.8,106.7,106.7-47.8,106.7-106.7,106.7ZM277.3,85.3V21.3c0-11.7-9.6-21.3-21.3-21.3s-21.3,9.6-21.3,21.3v64c0,11.7,9.6,21.3,21.3,21.3s21.3-9.6,21.3-21.3ZM277.3,490.7v-64c0-11.7-9.6-21.3-21.3-21.3s-21.3,9.6-21.3,21.3v64c0,11.7,9.6,21.3,21.3,21.3s21.3-9.6,21.3-21.3ZM106.7,256c0-11.7-9.6-21.3-21.3-21.3H21.3c-11.7,0-21.3,9.6-21.3,21.3s9.6,21.3,21.3,21.3h64c11.7,0,21.3-9.6,21.3-21.3ZM512,256c0-11.7-9.6-21.3-21.3-21.3h-64c-11.7,0-21.3,9.6-21.3,21.3s9.6,21.3,21.3,21.3h64c11.7,0,21.3-9.6,21.3-21.3ZM143.1,143.1c8.3-8.3,8.3-21.8,0-30.1l-42.7-42.7c-8.3-8.3-21.8-8.3-30.1,0s-8.3,21.8,0,30.1l42.7,42.7c4.3,4.3,9.6,6.2,15.1,6.2s10.9-2.1,15.1-6.2h-.2ZM441.8,441.8c8.3-8.3,8.3-21.8,0-30.1l-42.7-42.7c-8.3-8.3-21.8-8.3-30.1,0s-8.3,21.8,0,30.1l42.7,42.7c4.3,4.3,9.6,6.2,15.1,6.2s10.9-2.1,15.1-6.2h-.2ZM100.5,441.8l42.7-42.7c8.3-8.3,8.3-21.8,0-30.1s-21.8-8.3-30.1,0l-42.7,42.7c-8.3,8.3-8.3,21.8,0,30.1,4.3,4.3,9.6,6.2,15.1,6.2s10.9-2.1,15.1-6.2h-.2ZM399.1,143.1l42.7-42.7c8.3-8.3,8.3-21.8,0-30.1s-21.8-8.3-30.1,0l-42.7,42.7c-8.3,8.3-8.3,21.8,0,30.1,4.3,4.3,9.6,6.2,15.1,6.2s10.9-2.1,15.1-6.2h-.2Z"/>
</svg>