<?xml version="1.0" encoding="UTF-8"?>
<svg id="_Слой_1" data-name="Слой_1" xmlns="http://www.w3.org/2000/svg" version="1.1" viewBox="0 0 512 512">
  <!-- Generator: Adobe Illustrator 29.1.0, SVG Export Plug-In . SVG Version: 2.1.0 Build 142)  -->
  <defs>
    <style>
      .st0 {
        fill: #fff;
      }

      .st1 {
        display: none;
      }
    </style>
  </defs>
  <g class="st1">
    <path class="st0" d="M81.2,148.3l-63.2,63.2v89l65.8,65.7c41.8,41.8,67.2,66.3,69.7,67.6,15.4,7.7,33.1,6.6,45.6-2.8,6.7-5,10.8-10.1,14.5-18.2,2.9-6.3,2.9-6.5,3.2-28.1l.4-21.8,72.1.3,72.2.4,10,2.6c30,8,54.3,24.1,71.9,47.6,15.6,20.7,23.8,43.2,25.6,70.4.8,11.7,1.1,13.5,3.7,17.6,2,3.3,4.4,5.4,8.3,7.5,4.8,2.5,6.3,2.8,11.3,2.4,7-.6,12.5-3.9,16.4-9.9l2.8-4.2.3-81.5c.3-84.8,0-94.2-3.9-113.6-14-69.4-68-127.2-136.7-146.1-23.6-6.4-26.4-6.7-93.4-7.1l-60.6-.5-.4-21.6-.3-21.7-3.2-6.7c-1.7-3.7-4.4-8.3-6-10.3l-2.8-3.5h-60l-63.3,63.3Z"/>
  </g>
  <path class="st0" d="M18.7,178.5c-25,25-25,65.5,0,90.5l125.4,125.4c8,8,18.8,12.5,30.2,12.5,23.6,0,42.7-19.1,42.7-42.7v-33.8h124.4c70.7,0,127.9,57.3,128,128,0,11.8,9.6,21.3,21.3,21.3,11.8,0,21.3-9.6,21.3-21.3v-149.3c-.1-106-86-191.9-192-192h-103v-33.8c0-11.3-4.5-22.2-12.5-30.2-16.7-16.7-43.7-16.7-60.3,0L18.7,178.5Z"/>
</svg>