<?xml version="1.0" encoding="UTF-8"?>
<svg id="Bold" xmlns="http://www.w3.org/2000/svg" version="1.1" viewBox="0 0 512 512">
  <!-- Generator: Adobe Illustrator 29.1.0, SVG Export Plug-In . SVG Version: 2.1.0 Build 142)  -->
  <defs>
    <style>
      .st0 {
        fill: #fff;
      }
    </style>
  </defs>
  <path class="st0" d="M393.1,104.8l-83.6-83.6c-29.5-28.2-76.1-28.2-105.6,0l-83.6,83.6c-12.3,12.7-11.9,33,.8,45.2,12.4,12,32.1,12,44.5,0l59.3-59.3.5,389.3c0,17.7,14.3,32,32,32h0c17.7,0,32-14.3,32-32l-.5-389,59,59c12.3,12.7,32.5,13.1,45.2.8,12.7-12.3,13.1-32.5.8-45.2-.3-.3-.5-.5-.8-.8h0Z"/>
</svg>